<svg fill="none" height="30" viewBox="0 0 20 20" width="30" xmlns="http://www.w3.org/2000/svg"><path d="m11.7677 3.0606c-.9763-.97631-2.55922-.97631-3.53553 0l-5.17157 5.17157c-.97631.97631-.97631 2.55923 0 3.53553l5.17157 5.1716c.97631.9763 2.55923.9763 3.53553 0l5.1716-5.1716c.9763-.9763.9763-2.55922 0-3.53553zm-1.1213 3.08583c.1952-.19526.5118-.19526.7071 0l1.5 1.50003c.1953.19527.1953.51185 0 .70711l-1.5 1.50003c-.1953.1953-.5119.1953-.7071 0-.1953-.19526-.1953-.51184 0-.7071l.6464-.64647h-.7929c-.82839 0-1.49996.67158-1.49996 1.49997v2.5c0 .2762-.22386.5-.5.5-.27615 0-.5-.2238-.5-.5v-2.5c0-1.38068 1.11928-2.49997 2.49996-2.49997h.793l-.6465-.64649c-.1953-.19526-.1953-.51184 0-.70711z" fill="#212121"/></svg>
